<svg width="20" height="20" viewBox="0 0 20 20" fill="none" xmlns="http://www.w3.org/2000/svg">
<path d="M6.875 8.75C6.875 7.02411 8.27411 5.625 10 5.625C11.7259 5.625 13.125 7.02411 13.125 8.75C13.125 10.0213 12.3657 11.1154 11.276 11.6035C13.5042 12.1221 15.2084 13.9679 15.2084 16.2492C15.2084 16.5944 14.9286 16.8742 14.5834 16.8742H5.41675C5.07157 16.8742 4.79175 16.5944 4.79175 16.2492C4.79175 13.9679 6.49597 12.1222 8.72408 11.6035C7.63424 11.1154 6.875 10.0214 6.875 8.75Z" fill="white"/>
<path d="M6.25 3.12341C4.52411 3.12341 3.125 4.52252 3.125 6.24841C3.125 7.5198 3.88424 8.61387 4.97406 9.10187C2.74597 9.62062 1.04175 11.4664 1.04175 13.7476C1.04175 14.0928 1.32157 14.3726 1.66675 14.3726H3.85448C4.31045 13.0555 5.23202 11.967 6.39932 11.234C5.91131 10.5285 5.625 9.67229 5.625 8.74837C5.625 6.72771 6.99496 5.02696 8.85675 4.5243C8.29726 3.68008 7.33864 3.12341 6.25 3.12341Z" fill="white"/>
<path d="M16.1455 14.3726C15.6896 13.0555 14.7679 11.9669 13.6006 11.2339C14.0886 10.5285 14.3748 9.67221 14.3748 8.74837C14.3748 6.72771 13.0049 5.02696 11.1431 4.5243C11.7026 3.68008 12.6612 3.12341 13.7498 3.12341C15.4757 3.12341 16.8748 4.52252 16.8748 6.24841C16.8748 7.51977 16.1156 8.61379 15.0258 9.10187C17.254 9.62054 18.9582 11.4663 18.9582 13.7476C18.9582 14.0928 18.6784 14.3726 18.3332 14.3726H16.1455Z" fill="white"/>
</svg>
