<svg width="20" height="20" viewBox="0 0 20 20" fill="none" xmlns="http://www.w3.org/2000/svg">
<path d="M4.99999 6.66666C5.92047 6.66666 6.66666 5.92047 6.66666 4.99999C6.66666 4.07952 5.92047 3.33333 4.99999 3.33333C4.07952 3.33333 3.33333 4.07952 3.33333 4.99999C3.33333 5.92047 4.07952 6.66666 4.99999 6.66666Z" stroke="black" stroke-width="1.25"/>
<path d="M10 16.6667C10.9205 16.6667 11.6667 15.9205 11.6667 15C11.6667 14.0795 10.9205 13.3333 10 13.3333C9.07951 13.3333 8.33334 14.0795 8.33334 15C8.33334 15.9205 9.07951 16.6667 10 16.6667Z" stroke="black" stroke-width="1.25"/>
<path d="M15 6.66666C15.9205 6.66666 16.6667 5.92047 16.6667 4.99999C16.6667 4.07952 15.9205 3.33333 15 3.33333C14.0795 3.33333 13.3333 4.07952 13.3333 4.99999C13.3333 5.92047 14.0795 6.66666 15 6.66666Z" stroke="black" stroke-width="1.25"/>
<path d="M5.01446 7.28389C5.01446 8.6785 4.81282 10.1662 7.68377 9.98791H10.0044M10.0044 9.98791H13.1551C14.0999 9.804 15.1049 9.98791 14.9941 7.1468M10.0044 9.98791V13.0834" stroke="black" stroke-width="1.25" stroke-linecap="round" stroke-linejoin="round"/>
</svg>
