<svg width="32" height="32" viewBox="0 0 32 32" fill="none" xmlns="http://www.w3.org/2000/svg">
<path d="M8.71783 17.6669C9.61059 17.6669 10.3555 17.6669 10.9586 17.7282C11.5899 17.7925 12.1758 17.9321 12.7038 18.2849C13.1041 18.5523 13.4478 18.8961 13.7154 19.2965C14.0682 19.8245 14.2078 20.4103 14.2721 21.0415C14.3334 21.6447 14.3334 22.4919 14.3333 23.3847C14.3334 24.2775 14.3334 25.0225 14.2721 25.6255C14.2078 26.2569 14.0682 26.8426 13.7154 27.3706C13.4478 27.771 13.1041 28.1147 12.7038 28.3823C12.1758 28.7351 11.5899 28.8747 10.9586 28.9389C10.3555 29.0003 9.61059 29.0002 8.71783 29.0002C7.82505 29.0002 6.9778 29.0003 6.37469 28.9389C5.7434 28.8747 5.15757 28.7351 4.62957 28.3823C4.22921 28.1147 3.88545 27.771 3.61795 27.3706C3.26515 26.8426 3.12553 26.2569 3.06131 25.6255C2.99996 25.0225 2.99997 24.2775 3 23.3847C2.99997 22.4919 2.99996 21.6447 3.06131 21.0415C3.12553 20.4103 3.26515 19.8245 3.61795 19.2965C3.88545 18.8961 4.22921 18.5523 4.62957 18.2849C5.15757 17.9321 5.7434 17.7925 6.37469 17.7282C6.9778 17.6669 7.82505 17.6669 8.71783 17.6669Z" fill="white"/>
<path opacity="0.4" d="M23.3846 17.6669C24.2774 17.6669 25.0223 17.6669 25.6254 17.7282C26.2567 17.7925 26.8426 17.9321 27.3706 18.2849C27.7709 18.5523 28.1146 18.8961 28.3822 19.2965C28.735 19.8245 28.8746 20.4103 28.9389 21.0415C29.0002 21.6447 29.0002 22.4919 29.0001 23.3847C29.0002 24.2775 29.0002 25.0225 28.9389 25.6255C28.8746 26.2569 28.735 26.8426 28.3822 27.3706C28.1146 27.771 27.7709 28.1147 27.3706 28.3823C26.8426 28.7351 26.2567 28.8747 25.6254 28.9389C25.0223 29.0003 24.2774 29.0002 23.3846 29.0002C22.4918 29.0002 21.6446 29.0003 21.0415 28.9389C20.4102 28.8747 19.8243 28.7351 19.2963 28.3823C18.8959 28.1147 18.5522 27.771 18.2847 27.3706C17.9319 26.8426 17.7923 26.2569 17.7281 25.6255C17.6667 25.0225 17.6667 24.2775 17.6667 23.3847C17.6667 22.4919 17.6667 21.6447 17.7281 21.0415C17.7923 20.4103 17.9319 19.8245 18.2847 19.2965C18.5522 18.8961 18.8959 18.5523 19.2963 18.2849C19.8243 17.9321 20.4102 17.7925 21.0415 17.7282C21.6446 17.6669 22.4918 17.6669 23.3846 17.6669Z" fill="white"/>
<path opacity="0.4" d="M8.71783 3C9.61059 2.99997 10.3555 2.99996 10.9586 3.06131C11.5899 3.12553 12.1758 3.26515 12.7038 3.61795C13.1041 3.88547 13.4478 4.22921 13.7154 4.62957C14.0682 5.15757 14.2078 5.7434 14.2721 6.37469C14.3334 6.9778 14.3334 7.82501 14.3333 8.71779C14.3334 9.61055 14.3334 10.3555 14.2721 10.9586C14.2078 11.5899 14.0682 12.1758 13.7154 12.7038C13.4478 13.1041 13.1041 13.4479 12.7038 13.7153C12.1758 14.0681 11.5899 14.2079 10.9586 14.272C10.3555 14.3333 9.61059 14.3333 8.71783 14.3333C7.82505 14.3333 6.9778 14.3333 6.37469 14.272C5.7434 14.2079 5.15757 14.0681 4.62957 13.7153C4.22921 13.4479 3.88545 13.1041 3.61795 12.7038C3.26515 12.1758 3.12553 11.5899 3.06131 10.9586C2.99996 10.3555 2.99997 9.61059 3 8.71783C2.99997 7.82505 2.99996 6.9778 3.06131 6.37469C3.12553 5.7434 3.26515 5.15757 3.61795 4.62957C3.88545 4.22921 4.22921 3.88547 4.62957 3.61795C5.15757 3.26515 5.7434 3.12553 6.37469 3.06131C6.9778 2.99996 7.82505 2.99997 8.71783 3Z" fill="white"/>
<path d="M23.3846 3C24.2774 2.99997 25.0223 2.99996 25.6254 3.06131C26.2567 3.12553 26.8426 3.26515 27.3706 3.61795C27.7709 3.88547 28.1146 4.22921 28.3822 4.62957C28.735 5.15757 28.8746 5.7434 28.9389 6.37469C29.0002 6.9778 29.0002 7.82501 29.0001 8.71779C29.0002 9.61055 29.0002 10.3555 28.9389 10.9586C28.8746 11.5899 28.735 12.1758 28.3822 12.7038C28.1146 13.1041 27.7709 13.4479 27.3706 13.7153C26.8426 14.0681 26.2567 14.2079 25.6254 14.272C25.0223 14.3333 24.2774 14.3333 23.3846 14.3333C22.4918 14.3333 21.6446 14.3333 21.0415 14.272C20.4102 14.2079 19.8243 14.0681 19.2963 13.7153C18.8959 13.4479 18.5522 13.1041 18.2847 12.7038C17.9319 12.1758 17.7923 11.5899 17.7281 10.9586C17.6667 10.3555 17.6667 9.61059 17.6667 8.71783C17.6667 7.82505 17.6667 6.9778 17.7281 6.37469C17.7923 5.7434 17.9319 5.15757 18.2847 4.62957C18.5522 4.22921 18.8959 3.88547 19.2963 3.61795C19.8243 3.26515 20.4102 3.12553 21.0415 3.06131C21.6446 2.99996 22.4918 2.99997 23.3846 3Z" fill="white"/>
</svg>
