<svg width="20" height="20" viewBox="0 0 20 20" fill="none" xmlns="http://www.w3.org/2000/svg">
<path fill-rule="evenodd" clip-rule="evenodd" d="M11.7836 1.47687C11.5169 1.45837 11.207 1.45837 10.6578 1.45837H9.34195C8.79279 1.45837 8.48279 1.45837 8.21608 1.47687C4.3796 1.74317 1.3263 4.79647 1.06 8.63296C1.04149 8.89971 1.0415 9.20954 1.0415 9.75879V9.82462C1.0415 10.3739 1.04149 10.6837 1.06 10.9505C1.15486 12.317 1.60376 13.5852 2.31584 14.6629L1.22885 18.5417L5.36408 17.3428C6.235 17.7689 7.19842 18.0359 8.21608 18.1065C8.48279 18.125 8.7927 18.125 9.34187 18.125H10.6578C11.207 18.125 11.5169 18.125 11.7836 18.1065C15.62 17.8402 18.6734 14.787 18.9397 10.9505C18.9582 10.6837 18.9582 10.3739 18.9582 9.82462V9.75879C18.9582 9.20954 18.9582 8.89971 18.9397 8.63296C18.6734 4.79647 15.62 1.74317 11.7836 1.47687ZM6.24984 11.4584H13.7499V12.7084H6.24984V11.4584ZM6.24984 7.29171H10.8332V8.54171H6.24984V7.29171Z" fill="white"/>
</svg>
