<svg width="20" height="20" viewBox="0 0 20 20" fill="none" xmlns="http://www.w3.org/2000/svg">
<path d="M9.99986 1.04175C12.1739 1.04175 14.1999 1.52314 15.8689 2.3536C16.636 2.73524 17.1785 2.99316 17.6569 3.76554C18.1431 4.55057 18.1249 5.33395 18.1249 6.45679V9.3645C18.1247 14.4783 14.0387 17.2696 11.8081 18.4172L11.778 18.4327C11.1799 18.7406 10.7566 18.9584 9.99986 18.9584C9.24319 18.9584 8.82061 18.7405 8.2225 18.4327L8.19158 18.4172C5.96095 17.2696 1.87495 14.4782 1.87485 9.3645V6.45679C1.87485 5.33396 1.85656 4.55056 2.34278 3.76554C2.82119 2.99316 3.36368 2.73522 4.1307 2.3536C5.79982 1.52313 7.82575 1.04176 9.99986 1.04175ZM9.99986 6.45841C9.61311 6.45844 9.24219 6.6122 8.96878 6.88566C8.69528 7.15915 8.54153 7.53 8.54153 7.91675C8.54153 8.3035 8.69528 8.67433 8.96878 8.94783C9.05894 9.038 9.16061 9.11358 9.26903 9.1765L8.7637 11.5357C8.72411 11.7202 8.77036 11.9131 8.88903 12.0598C9.00761 12.2064 9.18619 12.2917 9.37486 12.2917H10.6249C10.8134 12.2917 10.992 12.2064 11.1107 12.0598C11.2294 11.913 11.2755 11.7202 11.236 11.5357L10.7299 9.1765C10.8385 9.1135 10.9406 9.03816 11.0309 8.94783C11.3044 8.67433 11.4582 8.30352 11.4582 7.91675C11.4582 7.52997 11.3044 7.15915 11.0309 6.88566C10.7574 6.61221 10.3866 6.45841 9.99986 6.45841Z" fill="white"/>
</svg>
