<svg width="20" height="20" viewBox="0 0 20 20" fill="none" xmlns="http://www.w3.org/2000/svg">
<path fill-rule="evenodd" clip-rule="evenodd" d="M9.16666 1.66667C5.02453 1.66667 1.66666 5.02454 1.66666 9.16667C1.66666 13.3088 5.02453 16.6667 9.16666 16.6667C10.9375 16.6667 12.565 16.0529 13.8481 15.0266L16.9107 18.0893C17.2362 18.4147 17.7638 18.4147 18.0892 18.0893C18.4147 17.7638 18.4147 17.2362 18.0892 16.9108L15.0266 13.8481C16.0529 12.565 16.6667 10.9375 16.6667 9.16667C16.6667 5.02454 13.3088 1.66667 9.16666 1.66667ZM3.33333 9.16667C3.33333 5.94501 5.94501 3.33334 9.16666 3.33334C12.3883 3.33334 15 5.94501 15 9.16667C15 12.3883 12.3883 15 9.16666 15C5.94501 15 3.33333 12.3883 3.33333 9.16667Z" fill="black"/>
</svg>
