<svg width="20" height="20" viewBox="0 0 20 20" fill="none" xmlns="http://www.w3.org/2000/svg">
<path fill-rule="evenodd" clip-rule="evenodd" d="M8.93533 1.04163C8.30763 1.04163 7.75035 1.44329 7.55185 2.03879L6.97893 3.75754L6.09278 4.31801L4.22479 3.85581C3.60082 3.70142 2.94935 3.97377 2.62092 4.52632L1.48409 6.43889C1.12557 7.04205 1.24742 7.81501 1.77407 8.27864L3.05383 9.40521V10.5947L1.77447 11.7213C1.24793 12.185 1.12617 12.9578 1.48464 13.561L2.62152 15.4736C2.94995 16.0261 3.60142 16.2985 4.2254 16.1441L6.11214 15.6773L6.90442 16.1215L7.42098 17.9055C7.60154 18.5291 8.17257 18.9583 8.82175 18.9583H11.1816C11.8308 18.9583 12.4018 18.5291 12.5824 17.9055L13.099 16.1215L13.8907 15.6773L15.7773 16.1441C16.4013 16.2985 17.0528 16.0261 17.3813 15.4736L18.5396 13.5248C18.8809 12.9505 18.7884 12.2176 18.3149 11.7462L16.9939 10.431L16.9943 9.56921L18.3155 8.25368C18.789 7.78228 18.8816 7.04943 18.5402 6.47511L17.3818 4.52632C17.0534 3.97377 16.4019 3.70142 15.778 3.85581L13.91 4.31801L13.0238 3.75754L12.4509 2.03879C12.2524 1.44329 11.6951 1.04163 11.0674 1.04163H8.93533ZM10 12.9166C11.6108 12.9166 12.9167 11.6108 12.9167 9.99996C12.9167 8.38913 11.6108 7.08329 10 7.08329C8.38917 7.08329 7.08333 8.38913 7.08333 9.99996C7.08333 11.6108 8.38917 12.9166 10 12.9166Z" fill="white"/>
</svg>
