<svg width="20" height="20" viewBox="0 0 20 20" fill="none" xmlns="http://www.w3.org/2000/svg">
<path d="M11.4397 2.87015L12.9062 5.8274C13.1062 6.23906 13.6394 6.63392 14.0894 6.70953L16.7474 7.15479C18.4473 7.44044 18.8473 8.68384 17.6223 9.91042L15.5559 11.9939C15.2059 12.3468 15.0143 13.0273 15.1226 13.5146L15.7143 16.0938C16.1808 18.1353 15.1059 18.925 13.3145 17.858L10.8231 16.371C10.3732 16.1022 9.63159 16.1022 9.17325 16.371L6.6819 17.858C4.89875 18.925 3.81555 18.1268 4.28216 16.0938L4.87376 13.5146C4.98208 13.0273 4.79044 12.3468 4.44047 11.9939L2.37404 9.91042C1.1575 8.68384 1.54913 7.44044 3.24894 7.15479L5.90698 6.70953C6.3486 6.63392 6.88187 6.23906 7.08185 5.8274L8.54834 2.87015C9.34825 1.26551 10.6481 1.26551 11.4397 2.87015Z" stroke="black" stroke-width="1.5" stroke-linecap="round" stroke-linejoin="round"/>
</svg>
