<svg width="20" height="20" viewBox="0 0 20 20" fill="none" xmlns="http://www.w3.org/2000/svg">
<path d="M10.0001 1.04163C14.9477 1.04163 18.9584 5.05241 18.9584 9.99996C18.9584 14.9475 14.9477 18.9583 10.0001 18.9583C5.05253 18.9583 1.04175 14.9475 1.04175 9.99996C1.04175 5.05241 5.05253 1.04163 10.0001 1.04163ZM9.16675 13.3333V15H10.8407V13.3333H9.16675ZM10.0001 4.99996C8.38925 4.99996 7.08341 6.30579 7.08341 7.91663V8.74996H8.75008V7.91663C8.75008 7.22628 9.30975 6.66663 10.0001 6.66663C10.6904 6.66663 11.2501 7.22628 11.2501 7.91663C11.2501 8.40063 10.9749 8.82204 10.5697 9.02988L10.4867 9.06896C9.943 9.29913 9.16675 9.87288 9.16675 10.8333V12.0833H10.8334V10.8374C10.8322 10.8483 10.8272 10.8305 10.8708 10.7812C10.9231 10.7223 11.0158 10.6548 11.1362 10.6038L11.3282 10.5135C12.27 10.031 12.9167 9.05029 12.9167 7.91663C12.9167 6.30579 11.6109 4.99996 10.0001 4.99996Z" fill="white"/>
</svg>
