<svg width="20" height="20" viewBox="0 0 20 20" fill="none" xmlns="http://www.w3.org/2000/svg">
<path fill-rule="evenodd" clip-rule="evenodd" d="M10.9475 1.18107C10.5513 1.04051 10.1308 1.04108 9.65588 1.04171C8.38446 1.04169 7.21142 1.04177 6.39579 1.13749C5.55188 1.23653 4.8288 1.44738 4.21628 1.9438C3.99143 2.12603 3.78663 2.3319 3.60535 2.55791C3.11149 3.17362 2.90174 3.90046 2.80321 4.74876C2.70798 5.56863 2.70799 6.59906 2.70801 7.8771V11.6884C2.70798 13.1733 2.70797 14.3704 2.83388 15.3117C2.96461 16.2891 3.24427 17.112 3.89448 17.7656C4.54468 18.4192 5.36337 18.7004 6.33569 18.8318C7.27222 18.9583 8.58146 18.9583 10.0588 18.9583C11.5361 18.9583 12.7269 18.9583 13.6635 18.8318C14.6358 18.7004 15.4545 18.4192 16.1046 17.7656C16.7549 17.112 17.0345 16.2891 17.1652 15.3117C17.2911 14.3704 17.2911 13.1734 17.2911 11.6884L17.2912 8.79313C17.292 8.24034 17.2928 7.74972 17.1061 7.29659C16.9194 6.84346 16.5737 6.49708 16.1843 6.10678L12.1985 2.10041C11.8632 1.76237 11.5663 1.46314 11.1873 1.28092C11.1091 1.24336 11.0291 1.21003 10.9475 1.18107ZM14.959 7.17863C15.474 7.69638 15.5618 7.80503 15.6091 7.91988C14.4695 7.9199 13.929 7.91924 13.2065 7.82211C12.4565 7.72127 11.8249 7.50552 11.3233 7.00393C10.8217 6.50233 10.606 5.87077 10.5051 5.12068C10.4082 4.39968 10.4082 3.85992 10.4082 2.72504V2.71806C10.5595 2.76363 10.6774 2.87482 11.1215 3.32124L14.959 7.17863Z" fill="white"/>
</svg>
